<?xml version="1.0" encoding="UTF-8"?>
<svg id="Capa_1" xmlns="http://www.w3.org/2000/svg" version="1.1" viewBox="0 0 512 165.92">
  <!-- Generator: Adobe Illustrator 30.1.0, SVG Export Plug-In . SVG Version: 2.1.1 Build 136)  -->
  <defs>
    <style>
      .st0 {
        fill: #fc2906;
      }
    </style>
  </defs>
  <path class="st0" d="M104.02,69.68H33.42s0-44.81,0-44.81h70.59c11.55,0,20.92,9.36,20.92,20.92v2.97c0,11.55-9.36,20.92-20.92,20.92ZM228.94,24.87h-41.79c-23.1,0-41.83,18.73-41.83,41.83v2.97h83.63V24.87ZM228.94,97.09h-83.63s0,2.97,0,2.97c0,23.1,18.73,41.83,41.83,41.83h41.79s0-44.81,0-44.81ZM33.42,119.49h0c0,12.37,10.03,22.4,22.4,22.4h81.02l-43.65-44.81h-37.37c-12.37,0-22.4,10.03-22.4,22.4ZM353.1,87.27v-7.77c0-30.17-24.46-54.63-54.63-54.63h-40.77s0,117.02,0,117.02h40.77c30.17,0,54.63-24.46,54.63-54.63ZM479.07,24.87l-116.43,116.43h67.71c27.18,0,49.18-22.1,49.05-49.29l-.33-67.15ZM358.65,24.87c14.73,12.01,24.94,29.35,27.69,49.07l49.08-49.07h-76.77ZM353.1,87.27v-7.77c0-30.17-24.46-54.63-54.63-54.63h-40.77s0,117.02,0,117.02h40.77c30.17,0,54.63-24.46,54.63-54.63Z"/>
</svg>